{
	"accessors":[{
		"bufferView":0,
		"type":"SCALAR",
		"componentType":5125,
		"count":508320,
		"byteOffset":0,
		"min":[0],
		"max":[84723]
	},
	{
		"bufferView":1,
		"type":"VEC3",
		"componentType":5126,
		"count":84724,
		"byteOffset":0,
		"min":[-7.365560054779053,
		-1.3868240118026734,
		-0.33578500151634219],
		"max":[7.364308834075928,
		1.3867299556732178,
		0.145005002617836]
	}],
	"asset":{
		"version":"2.0",
		"generator":"Created using the official Cinema 4D glTF Exporter 1.000x284978"
	},
	"bufferViews":[{
		"buffer":0,
		"byteOffset":0,
		"byteLength":2033280,
		"target":34963
	},
	{
		"buffer":0,
		"byteOffset":2033280,
		"byteLength":1016688,
		"target":34962
	}],
	"scenes":[{
		"nodes":[0]
	}],
	"nodes":[{
		"name":"Default",
		"translation":[2.850719690322876,
		2.0523011684417726,
		-10.8775634765625],
		"rotation":[0.0,
		0.9891017079353333,
		0.0,
		-0.1472339928150177],
		"scale":[1.0,
		1.0,
		1.0],
		"mesh":0
	}],
	"meshes":[{
		"name":"Default",
		"primitives":[{
			"attributes":{
				"POSITION":1
			},
			"indices":0,
			"material":0
		}]
	}],
	"buffers":[{
		"uri":"data:application/octet-stream;base64,",
		"byteLength":3049968
	}],
	"materials":[{
		"alphaMode":"OPAQUE",
		"pbrMetallicRoughness":{
			"baseColorFactor":[0.0,
			0.10286750570323559,
			0.8817204301075269,
			1.0],
			"metallicFactor":1.0,
			"roughnessFactor":1.0
		},
		"emissiveFactor":[0.0,
		0.0,
		0.0],
		"name":"mat",
		"doubleSided":true
	}]
}