{
	"asset":{
		"version":"2.0",
		"generator":"Created using the official Cinema 4D glTF Exporter 1.000x284978"
	},
	"accessors":[{
		"bufferView":0,
		"type":"SCALAR",
		"min":[0],
		"componentType":5123,
		"count":15696,
		"byteOffset":0,
		"max":[3503]
	},
	{
		"bufferView":1,
		"type":"VEC3",
		"min":[-1.929072618484497,
		-0.8338024616241455,
		-1.9290730953216553],
		"componentType":5126,
		"count":3504,
		"byteOffset":0,
		"max":[1.9290733337402344,
		2.9291024208068849,
		1.9290733337402344]
	},
	{
		"bufferView":1,
		"type":"VEC3",
		"min":[-0.9991032481193543,
		-1.0,
		-0.9986087083816528],
		"componentType":5126,
		"count":3504,
		"byteOffset":12,
		"max":[0.9991056323051453,
		1.0,
		0.9986087083816528]
	},
	{
		"bufferView":2,
		"type":"SCALAR",
		"min":[0],
		"componentType":5123,
		"count":2304,
		"byteOffset":0,
		"max":[484]
	},
	{
		"bufferView":3,
		"type":"VEC3",
		"min":[-2.0244922637939455,
		-1.059205174446106,
		-2.024491786956787],
		"componentType":5126,
		"count":485,
		"byteOffset":0,
		"max":[2.0244929790496828,
		2.4385695457458498,
		2.0244922637939455]
	},
	{
		"bufferView":3,
		"type":"VEC3",
		"min":[-1.0,
		-2.704661881125503e-7,
		-1.0],
		"componentType":5126,
		"count":485,
		"byteOffset":12,
		"max":[1.0,
		1.5081761262081273e-7,
		1.0]
	},
	{
		"bufferView":3,
		"type":"VEC2",
		"min":[0.3753255009651184,
		0.31156015396118166],
		"componentType":5126,
		"count":485,
		"byteOffset":24,
		"max":[0.6246745586395264,
		0.6875]
	},
	{
		"bufferView":4,
		"type":"SCALAR",
		"min":[0],
		"componentType":5123,
		"count":28944,
		"byteOffset":0,
		"max":[6477]
	},
	{
		"bufferView":5,
		"type":"VEC3",
		"min":[-2.2375266551971437,
		-2.3799312114715578,
		-1.972945213317871],
		"componentType":5126,
		"count":6478,
		"byteOffset":0,
		"max":[2.2375266551971437,
		4.970533847808838,
		1.972945213317871]
	},
	{
		"bufferView":5,
		"type":"VEC3",
		"min":[-0.9999563097953796,
		-1.0,
		-1.0],
		"componentType":5126,
		"count":6478,
		"byteOffset":12,
		"max":[0.9999563097953796,
		1.0,
		0.9995168447494507]
	}],
	"meshes":[{
		"name":"jingong01_pCylinder44",
		"primitives":[{
			"attributes":{
				"POSITION":1,
				"NORMAL":2
			},
			"indices":0,
			"material":0
		}]
	},
	{
		"name":"glass",
		"primitives":[{
			"attributes":{
				"POSITION":4,
				"NORMAL":5,
				"TEXCOORD_0":6
			},
			"indices":3,
			"material":1
		}]
	},
	{
		"name":"jingong01_body11",
		"primitives":[{
			"attributes":{
				"POSITION":8,
				"NORMAL":9
			},
			"indices":7,
			"material":2
		}]
	}],
	"scenes":[{
		"nodes":[0]
	}],
	"nodes":[{
		"name":"jingong01",
		"children":[1,
		2,
		4]
	},
	{
		"name":"jingong01_pCylinder44",
		"mesh":0
	},
	{
		"name":"Subdivision Surface",
		"children":[3]
	},
	{
		"name":"glass",
		"translation":[0.0,
		0.12886770069599152,
		0.0],
		"rotation":[0.0,
		0.0,
		0.0,
		-1.0],
		"scale":[0.9081099629402161,
		1.0841008424758912,
		0.9081099629402161],
		"mesh":1
	},
	{
		"name":"jingong01_body11",
		"mesh":2
	}],
	"bufferViews":[{
		"buffer":0,
		"byteOffset":0,
		"byteLength":31392,
		"target":34963
	},
	{
		"buffer":0,
		"byteOffset":31392,
		"byteLength":84096,
		"target":34962,
		"byteStride":24
	},
	{
		"buffer":1,
		"byteOffset":0,
		"byteLength":4608,
		"target":34963
	},
	{
		"buffer":1,
		"byteOffset":4608,
		"byteLength":15520,
		"target":34962,
		"byteStride":32
	},
	{
		"buffer":2,
		"byteOffset":0,
		"byteLength":57888,
		"target":34963
	},
	{
		"buffer":2,
		"byteOffset":57888,
		"byteLength":155472,
		"target":34962,
		"byteStride":24
	}],
	"buffers":[{
		"uri":"data:application/octet-stream;base64,",
		"byteLength":115488
	},
	{
		"uri":"data:application/octet-stream;base64,",
		"byteLength":20128
	},
	{
		"uri":"data:application/octet-stream;base64,",
		"byteLength":213360
	}],
	"materials":[{
		"pbrMetallicRoughness":{
			"baseColorFactor":[0.65,
			0.65,
			0.65,
			1.0],
			"metallicFactor":0.0,
			"roughnessFactor":0.5
		},
		"emissiveFactor":[0.0,
		0.0,
		0.0],
		"alphaMode":"OPAQUE",
		"doubleSided":false,
		"name":"Mat"
	},
	{
		"pbrMetallicRoughness":{
			"baseColorFactor":[0.8,
			0.8,
			0.8,
			0.29999999999999996],
			"metallicFactor":0.0,
			"roughnessFactor":0.5
		},
		"emissiveFactor":[0.0,
		0.0,
		0.0],
		"alphaMode":"BLEND",
		"doubleSided":false,
		"name":"Mat.2"
	},
	{
		"pbrMetallicRoughness":{
			"baseColorFactor":[1.0,
			1.0,
			1.0,
			1.0],
			"metallicFactor":0.0,
			"roughnessFactor":0.5
		},
		"emissiveFactor":[0.0,
		0.0,
		0.0],
		"alphaMode":"OPAQUE",
		"doubleSided":false,
		"name":"Mat.1"
	}]
}