{
	"asset":{
		"version":"2.0",
		"generator":"Created using the official Cinema 4D glTF Exporter 1.000x284978"
	},
	"scenes":[{
		"nodes":[0]
	}],
	"nodes":[{
		"name":"group8",
		"mesh":0
	}],
	"meshes":[{
		"name":"group8",
		"primitives":[{
			"attributes":{
				"POSITION":1
			},
			"indices":0,
			"material":0
		}]
	}],
	"accessors":[{
		"max":[33767],
		"bufferView":0,
		"type":"SCALAR",
		"componentType":5123,
		"count":203064,
		"byteOffset":0,
		"min":[0]
	},
	{
		"max":[52.62012481689453,
		6.79180908203125,
		17.644256591796876],
		"bufferView":1,
		"type":"VEC3",
		"componentType":5126,
		"count":33768,
		"byteOffset":0,
		"min":[-52.62012481689453,
		-6.791801452636719,
		-49.644256591796878]
	}],
	"bufferViews":[{
		"buffer":0,
		"byteOffset":0,
		"byteLength":406128,
		"target":34963
	},
	{
		"buffer":0,
		"byteOffset":406128,
		"byteLength":405216,
		"target":34962
	}],
	"buffers":[{
		"uri":"data:application/octet-stream;base64,",
		"byteLength":811344
	}],
	"materials":[{
		"pbrMetallicRoughness":{
			"baseColorFactor":[1.0,
			1.0,
			1.0,
			1.0],
			"metallicFactor":0.0,
			"roughnessFactor":0.5
		},
		"emissiveFactor":[0.0,
		0.0,
		0.0],
		"alphaMode":"OPAQUE",
		"doubleSided":false,
		"name":"Mat"
	}]
}